# xmcd
#
# Track frame offsets:
#	150
#	10096
#	22407
#	34395
#	45513
#	53171
#	65292
#	82615
#	91842
#	102476
#	112908
#	118662
#	129455
#	140542
#	156997
#
# Disc length: 2313 seconds
#
# Revision: 0
# Processed by: cddbd v1.5.2PL0 Copyright (c) Steve Scherf et al.
# Submitted via: EasyCDDAExtractor 12.0.4.1
#
DISCID=c009070f
DTITLE=Tom Astor - Lass es schnei´n
DYEAR=1900
DGENRE=
TTITLE0=Amen
TTITLE1=Bitte du kochen mir großen kalten Fuß 
TTITLE2=Es ist für uns eine Zeit angekommen 
TTITLE3=Feliz Navidad - Album Version 
TTITLE4=Laiwe, hailege Kristuskind - plattdeutsch 
TTITLE5=Hei, hei, hei, so eine Schneeballschlacht 
TTITLE6=Heilige Nacht
TTITLE7=Macht hoch die Tür
TTITLE8=Vorfahrt für den Weihnachtsmann 
TTITLE9=Frosti der Schneemann (Frosty The Snowman) 
TTITLE10=Jedes Jahr zur gleichen Zeit - Weihnachtsgedicht 
TTITLE11=Kommet ihr Hirten
TTITLE12=Let it snow
TTITLE13=Stille Nacht
TTITLE14=Winter in Kanada
EXTD=
EXTT0=
EXTT1=
EXTT2=
EXTT3=
EXTT4=
EXTT5=
EXTT6=
EXTT7=
EXTT8=
EXTT9=
EXTT10=
EXTT11=
EXTT12=
EXTT13=
EXTT14=
PLAYORDER=
